<?xml version="1.0" encoding="utf-8"?>
<!-- Generator: Adobe Illustrator 23.0.3, SVG Export Plug-In . SVG Version: 6.00 Build 0)  -->
<svg version="1.1" id="Layer_1" xmlns="http://www.w3.org/2000/svg" xmlns:xlink="http://www.w3.org/1999/xlink" x="0px" y="0px"
	 viewBox="0 0 258 258" style="enable-background:new 0 0 258 258;" xml:space="preserve">
<style type="text/css">
	.st0{fill:#999999;}
	.st1{fill:#4D4D4D;}
	.st2{fill:#FFFFFF;}
</style>
<g>
	<path class="st0" d="M200.67,80.33C200.67,119.73,130,237,130,237S58,119.73,58,80.33S89.94,9,129.33,9S200.67,40.94,200.67,80.33z
		"/>
</g>
<g>
	<circle class="st1" cx="128.67" cy="78.33" r="57.33"/>
</g>
<path class="st2" d="M115.7,66.68c0.73-1.54,1.42-3.08,1.97-4.65c1.41-3.97,5.43-11.69,15.46-11.69c13.5,0,20.91,10.5,20.91,10.5
	s11.33-7.29,15.68-2.92S155.78,68.7,155.78,68.7s-3.7,1.31-9.8-2.77l-3.48-2.04l-7.41,11.08c0,0,9.58,4.08,11.33,7.87
	c1.74,3.79-5.23,22.16-5.23,22.16h-13.5l6.1-17.2c0,0,0.44-2.04-2.18-3.5l-2.18-1.17c0,0-2.61,7.87-15.25,8.16H93.27
	c0,0-5.66-0.87-5.66-3.79s2.61-4.37,4.79-4.66h21.34c0,0,3.92-0.29,5.23-5.25C118.97,77.59,111.57,75.36,115.7,66.68z"/>
<circle class="st2" cx="143.33" cy="41" r="8"/>
<circle class="st2" cx="110" cy="113" r="2.67"/>
<circle class="st2" cx="146" cy="113" r="2.67"/>
<path class="st2" d="M153.33,110.33h-50.67c-1.1,0-2-0.9-2-2V107c0-1.1,0.9-2,2-2h50.67c1.1,0,2,0.9,2,2v1.33
	C155.33,109.44,154.44,110.33,153.33,110.33z"/>
</svg>
